<svg width="15" height="16" viewBox="0 0 15 16" fill="none" xmlns="http://www.w3.org/2000/svg">
<g clip-path="url(#clip0_562_321)">
<path d="M3.0625 1V2H1.5625C0.734375 2 0.0625 2.67188 0.0625 3.5V5H14.0625V3.5C14.0625 2.67188 13.3906 2 12.5625 2H11.0625V1C11.0625 0.446875 10.6156 0 10.0625 0C9.50937 0 9.0625 0.446875 9.0625 1V2H5.0625V1C5.0625 0.446875 4.61562 0 4.0625 0C3.50938 0 3.0625 0.446875 3.0625 1ZM14.0625 6H0.0625V14.5C0.0625 15.3281 0.734375 16 1.5625 16H12.5625C13.3906 16 14.0625 15.3281 14.0625 14.5V6Z" fill="white" fill-opacity="0.8"/>
</g>
<defs>
<clipPath id="clip0_562_321">
<path d="M0.0625 0H14.0625V16H0.0625V0Z" fill="white"/>
</clipPath>
</defs>
</svg>
