<svg width="17" height="16" viewBox="0 0 17 16" fill="none" xmlns="http://www.w3.org/2000/svg">
<g clip-path="url(#clip0_562_421)">
<path d="M1.925 9.38767L7.57188 14.6595C7.80625 14.8783 8.11562 15.0002 8.4375 15.0002C8.75937 15.0002 9.06875 14.8783 9.30313 14.6595L14.95 9.38767C15.9 8.50329 16.4375 7.26267 16.4375 5.96579V5.78454C16.4375 3.60017 14.8594 1.73767 12.7063 1.37829C11.2812 1.14079 9.83125 1.60642 8.8125 2.62517L8.4375 3.00017L8.0625 2.62517C7.04375 1.60642 5.59375 1.14079 4.16875 1.37829C2.01562 1.73767 0.4375 3.60017 0.4375 5.78454V5.96579C0.4375 7.26267 0.975 8.50329 1.925 9.38767Z" fill="white"/>
</g>
<defs>
<clipPath id="clip0_562_421">
<path d="M0.4375 0H16.4375V16H0.4375V0Z" fill="white"/>
</clipPath>
</defs>
</svg>
