<svg width="28" height="28" viewBox="0 0 28 28" fill="none" xmlns="http://www.w3.org/2000/svg">
<path fill-rule="evenodd" clipRule="evenodd" d="M9.66875 0.27508C9.52437 0.418148 9.40625 1.0522 9.40625 1.68408V2.83296H14H18.5938V1.68408C18.5938 1.0522 18.4756 0.418148 18.3313 0.27508C17.9611 -0.0916935 10.0389 -0.0916935 9.66875 0.27508ZM4.48109 3.47113C3.74216 3.76832 2.65278 5.02276 2.26887 6.01839C2.06916 6.5369 1.95234 7.00751 2.00944 7.0643C2.06675 7.12088 2.68516 7.06256 3.38384 6.93445C4.46622 6.73611 4.70575 6.75302 5.00303 7.04761C5.62734 7.66627 5.05838 8.11129 3.20666 8.45249L1.53125 8.76117V9.66662V10.5718L3.11719 10.2905C5.26422 9.90961 5.63697 9.92132 5.88328 10.3774C6.25603 11.0676 5.78638 11.3529 3.68178 11.7147C1.72922 12.0502 1.63756 12.0907 1.5715 12.6517L1.50216 13.2379H4.36056H7.21875L7.21722 10.2573C7.21656 8.6181 7.33381 6.50872 7.47797 5.57011C7.72209 3.98054 7.71181 3.84289 7.32834 3.56499C6.88166 3.24135 5.19138 3.18564 4.48109 3.47113ZM23.1015 4.25974C22.9009 4.77782 22.9309 4.89119 23.4167 5.44612C23.9509 6.05654 23.9433 7.34133 23.4062 7.17529C23.2258 7.11958 22.4383 7.07492 21.6562 7.07622C20.0662 7.07882 19.2765 7.40116 18.209 8.48284C17.4324 9.26993 16.0475 11.7693 15.9344 12.5876L15.8594 13.1295L21.0941 13.1878C25.1357 13.2327 26.3688 13.1833 26.5046 12.971C26.9642 12.2535 26.556 10.2768 25.6861 9.00655C25.1937 8.28775 25.1589 8.11888 25.3892 7.56785C25.982 6.14975 25.0421 3.91681 23.8523 3.91681C23.4905 3.91681 23.1792 4.05901 23.1015 4.25974ZM9.31066 4.54479C9.24109 4.65664 9.12231 5.19488 9.04663 5.74135L8.90925 6.73481H13.3284C18.6095 6.73481 19.1242 6.58611 18.8272 5.14611L18.6854 4.45873L14.0615 4.4002C11.3536 4.36595 9.38481 4.426 9.31066 4.54479ZM8.75 10.745V13.2379H11.4601H14.17L14.3211 12.4395C14.4043 12.0004 14.8328 10.9518 15.2733 10.1093C15.7141 9.26668 16.1081 8.5043 16.1492 8.41477C16.1903 8.32525 14.5423 8.2522 12.4869 8.2522H8.75V10.745ZM0 21.1066C0 25.7576 0.0702188 27.5275 0.2625 27.7181C0.641813 28.094 27.3582 28.094 27.7375 27.7181C27.9298 27.5275 28 25.7576 28 21.1066V14.7553H14H0V21.1066ZM13.5137 17.694C13.9538 17.9994 14.0462 17.9994 14.4863 17.694C15.6507 16.8857 17.6964 17.5986 18.2965 19.0222C18.886 20.4203 18.5771 21.1012 16.3288 23.3582C15.223 24.4685 14.175 25.377 14 25.377C13.825 25.377 12.777 24.4685 11.6712 23.3582C9.42288 21.1012 9.114 20.4203 9.70353 19.0222C10.3036 17.5986 12.3493 16.8857 13.5137 17.694ZM11.4312 19.1449C10.7629 19.9825 11.0453 20.6501 12.78 22.3348L14 23.5197L15.22 22.3348C16.7969 20.8034 17.1211 20.212 16.7687 19.5092C16.422 18.8175 15.6227 18.7254 14.854 19.2886C14.0882 19.8496 13.8832 19.852 13.1847 19.3074C12.5549 18.8165 11.7526 18.7421 11.4312 19.1449Z" fill="#F4A261"/>
</svg>
