<svg width="20" height="15" viewBox="0 0 20 15" fill="none" xmlns="http://www.w3.org/2000/svg">
<g clip-path="url(#clip0_9_908)">
<path d="M18.7832 3.35016C18.6843 2.95467 18.4826 2.59231 18.1988 2.29967C17.9149 2.00703 17.5589 1.79448 17.1666 1.6835C15.7332 1.3335 9.99991 1.3335 9.99991 1.3335C9.99991 1.3335 4.26657 1.3335 2.83324 1.71683C2.44095 1.82782 2.08489 2.04036 1.80103 2.333C1.51717 2.62564 1.31556 2.988 1.21657 3.3835C0.954252 4.83813 0.825937 6.31375 0.83324 7.79183C0.823889 9.28103 0.952213 10.7679 1.21657 12.2335C1.32571 12.6167 1.53183 12.9653 1.81503 13.2456C2.09822 13.5258 2.44892 13.7283 2.83324 13.8335C4.26657 14.2168 9.99991 14.2168 9.99991 14.2168C9.99991 14.2168 15.7332 14.2168 17.1666 13.8335C17.5589 13.7225 17.9149 13.51 18.1988 13.2173C18.4826 12.9247 18.6843 12.5623 18.7832 12.1668C19.0435 10.7232 19.1718 9.25877 19.1666 7.79183C19.1759 6.30263 19.0476 4.81574 18.7832 3.35016Z" stroke="#F9F9F9" stroke-width="1.5" stroke-linecap="round" stroke-linejoin="round"/>
<path d="M8.125 10.5169L12.9167 7.79189L8.125 5.06689V10.5169Z" stroke="#F9F9F9" stroke-width="1.5" stroke-linecap="round" stroke-linejoin="round"/>
</g>
<defs>
<clipPath id="clip0_9_908">
<rect width="20" height="15" fill="white"/>
</clipPath>
</defs>
</svg>
