<svg width="32" height="33" viewBox="0 0 32 33" fill="none" xmlns="http://www.w3.org/2000/svg">
<path d="M16 4.6431C13.5246 4.6431 11.1507 5.62643 9.40034 7.37677C7.65 9.12711 6.66667 11.5011 6.66667 13.9764C6.66667 17.7924 9.04267 21.4738 11.6507 24.3258C12.9842 25.7786 14.4392 27.115 16 28.3204C16.2329 28.1418 16.5062 27.924 16.82 27.6671C18.0731 26.6381 19.2524 25.5225 20.3493 24.3284C22.9573 21.4738 25.3333 17.7938 25.3333 13.9764C25.3333 11.5011 24.35 9.12711 22.5997 7.37677C20.8493 5.62643 18.4754 4.6431 16 4.6431ZM16 31.5951L15.244 31.0751L15.24 31.0724L15.232 31.0658L15.2053 31.0471L15.1053 30.9764L14.7453 30.7138C12.9211 29.3428 11.2265 27.8075 9.68267 26.1271C6.95733 23.1431 4 18.8244 4 13.9751C4 10.7925 5.26428 7.74025 7.51472 5.48982C9.76515 3.23938 12.8174 1.9751 16 1.9751C19.1826 1.9751 22.2348 3.23938 24.4853 5.48982C26.7357 7.74025 28 10.7925 28 13.9751C28 18.8244 25.0427 23.1444 22.3173 26.1244C20.7739 27.8048 19.0797 29.3401 17.256 30.7111C17.1041 30.8246 16.9507 30.9361 16.796 31.0458L16.768 31.0644L16.76 31.0711L16.7573 31.0724L16 31.5951ZM16 11.3098C15.2928 11.3098 14.6145 11.5907 14.1144 12.0908C13.6143 12.5909 13.3333 13.2692 13.3333 13.9764C13.3333 14.6837 13.6143 15.362 14.1144 15.862C14.6145 16.3621 15.2928 16.6431 16 16.6431C16.7072 16.6431 17.3855 16.3621 17.8856 15.862C18.3857 15.362 18.6667 14.6837 18.6667 13.9764C18.6667 13.2692 18.3857 12.5909 17.8856 12.0908C17.3855 11.5907 16.7072 11.3098 16 11.3098ZM10.6667 13.9764C10.6667 12.5619 11.2286 11.2054 12.2288 10.2052C13.229 9.205 14.5855 8.6431 16 8.6431C17.4145 8.6431 18.771 9.205 19.7712 10.2052C20.7714 11.2054 21.3333 12.5619 21.3333 13.9764C21.3333 15.3909 20.7714 16.7475 19.7712 17.7477C18.771 18.7479 17.4145 19.3098 16 19.3098C14.5855 19.3098 13.229 18.7479 12.2288 17.7477C11.2286 16.7475 10.6667 15.3909 10.6667 13.9764Z" fill="#F4A261"/>
</svg>
