<svg width="15" height="16" viewBox="0 0 15 16" fill="none" xmlns="http://www.w3.org/2000/svg">
<g clip-path="url(#clip0_562_316)">
<path d="M7.59375 8C8.65462 8 9.67203 7.57857 10.4222 6.82843C11.1723 6.07828 11.5938 5.06087 11.5938 4C11.5938 2.93913 11.1723 1.92172 10.4222 1.17157C9.67203 0.421427 8.65462 0 7.59375 0C6.53288 0 5.51547 0.421427 4.76532 1.17157C4.01518 1.92172 3.59375 2.93913 3.59375 4C3.59375 5.06087 4.01518 6.07828 4.76532 6.82843C5.51547 7.57857 6.53288 8 7.59375 8ZM6.16563 9.5C3.0875 9.5 0.59375 11.9937 0.59375 15.0719C0.59375 15.5844 1.00938 16 1.52188 16H13.6656C14.1781 16 14.5938 15.5844 14.5938 15.0719C14.5938 11.9937 12.1 9.5 9.02188 9.5H6.16563Z" fill="white" fill-opacity="0.8"/>
</g>
<defs>
<clipPath id="clip0_562_316">
<path d="M0.59375 0H14.5938V16H0.59375V0Z" fill="white"/>
</clipPath>
</defs>
</svg>
