<svg width="28" height="24" viewBox="0 0 28 24" fill="none" xmlns="http://www.w3.org/2000/svg">
<path fill-rule="evenodd" clip-rule="evenodd" d="M14.2818 1.0729C13.5256 1.82921 13.24 2.57704 13.24 3.80048C13.24 5.59423 14.2105 7.07714 17.018 9.57455C19.9041 12.1416 19.6032 12.1692 22.9149 9.03524C25.9774 6.13737 26.7116 4.74704 26.218 2.78002C25.6044 0.333142 22.6751 -0.798997 20.6433 0.624882C19.9164 1.13447 19.6792 1.13447 18.9824 0.624882C17.6821 -0.326777 15.4695 -0.116147 14.2818 1.0729ZM7.92705 11.8979C7.45602 12.089 5.73738 13.4381 4.10785 14.8955C-0.979747 19.447 -0.649173 18.6656 1.39452 21.2998C2.37521 22.5644 3.31431 23.7535 3.48065 23.942C3.64743 24.1306 4.62217 23.8439 5.64741 23.305C7.23026 22.4727 7.99113 22.35 10.6938 22.4901C12.4443 22.5814 15.411 22.677 17.2862 22.7024C20.5482 22.7475 20.7871 22.6842 22.8028 21.2403C25.8128 19.0848 28.8779 13.8109 27.7674 12.6996C27.1211 12.0529 25.8879 12.8682 24.5168 14.848C22.6522 17.5407 21.6168 18.0151 17.1653 18.2155C13.3936 18.3849 13.24 18.3569 13.24 17.4919C13.24 16.6714 13.4738 16.592 15.8922 16.5895C19.1097 16.5869 21.7271 15.9189 21.7271 15.1006C21.7271 14.2237 20.6539 13.805 16.8903 13.2143C15.0469 12.9247 12.7791 12.4198 11.8506 12.0919C9.96693 11.4269 9.18314 11.3883 7.92705 11.8979Z" fill="#F4F4F4"/>
</svg>
