<svg width="32" height="33" viewBox="0 0 32 33" fill="none" xmlns="http://www.w3.org/2000/svg">
<path d="M5.11052 5.97575H11.0972L13.0265 10.7997L9.92652 12.8664C9.74396 12.9882 9.5943 13.1532 9.49079 13.3467C9.38729 13.5402 9.33315 13.7563 9.33319 13.9757C9.33719 14.1011 9.33319 13.9771 9.33319 13.9771V14.0051C9.33385 14.0647 9.33652 14.1243 9.34119 14.1837C9.3483 14.294 9.36385 14.4406 9.38785 14.6237C9.43985 14.9837 9.53985 15.4797 9.73452 16.0637C10.1265 17.2371 10.8945 18.7557 12.3905 20.2517C13.8865 21.7477 15.4052 22.5157 16.5772 22.9077C17.1625 23.1024 17.6572 23.2011 18.0199 23.2544C18.2244 23.2841 18.4305 23.302 18.6372 23.3078L18.6545 23.3091H18.6652C18.6652 23.3091 18.8145 23.3011 18.6665 23.3091C18.9141 23.309 19.1567 23.2399 19.3672 23.1097C19.5777 22.9795 19.7479 22.7932 19.8585 22.5718L20.7519 20.7851L26.6665 21.7717V27.5317C23.8519 27.9384 16.2492 28.3397 10.2759 22.3664C4.30252 16.3931 4.70252 8.78908 5.11052 5.97575ZM12.0972 14.6237L14.5065 13.0184C15.0155 12.6789 15.3923 12.1747 15.5736 11.5904C15.755 11.006 15.7299 10.3771 15.5025 9.80908L13.5732 4.98508C13.3752 4.49029 13.0335 4.06617 12.5922 3.76743C12.1508 3.46869 11.6301 3.30905 11.0972 3.30908H5.04119C3.82919 3.30908 2.68919 4.15042 2.49052 5.46508C2.03719 8.45442 1.42252 17.2838 8.39052 24.2518C15.3585 31.2197 24.1879 30.6038 27.1772 30.1517C28.4918 29.9517 29.3332 28.8131 29.3332 27.6011V21.7717C29.3333 21.1405 29.1094 20.5297 28.7014 20.048C28.2935 19.5663 27.7278 19.2449 27.1052 19.1411L21.1905 18.1557C20.628 18.0618 20.0502 18.1508 19.5419 18.4095C19.0336 18.6682 18.6217 19.083 18.3665 19.5931L17.9052 20.5171C17.7421 20.4765 17.5807 20.4298 17.4212 20.3771C16.5945 20.1024 15.4465 19.5371 14.2759 18.3664C13.1052 17.1957 12.5399 16.0477 12.2652 15.2197C12.2004 15.0238 12.1448 14.8249 12.0985 14.6237H12.0972Z" fill="#F4A261"/>
</svg>
